<svg id="Group_29275" data-name="Group 29275" xmlns="http://www.w3.org/2000/svg" width="111.735" height="112.206" viewBox="0 0 111.735 112.206">
  <g id="Group_29153" data-name="Group 29153">
    <g id="Group_29120" data-name="Group 29120" transform="translate(6.387 6.305)">
      <path id="Path_22357" data-name="Path 22357" d="M482.91,298.867c-.028.018-.06.037-.088.055a46.869,46.869,0,0,0,17.991-3.16,50.919,50.919,0,0,0,32.59-47.006c-.231-19.07-11.1-37.342-28.8-45.2-20.279-9-45.184-3.386-59.1,14.125-12.607,15.869-15.043,38.513-4.853,56.236.955.014,1.956.055,2.975.157,4.77.475,2.408,1.43-.277.955a14.162,14.162,0,0,0-2.145-.175c.1.157.184.314.281.471a50.333,50.333,0,0,0,40.479,23.586c1.116-.646,1.864-1.089,1.864-1.089S486.061,296.865,482.91,298.867Zm32.138-81.28h4.322s-3.686,1.144-5.6.969S513.775,217.587,515.049,217.587Zm-2.011,4.705c1.73,0,3.132.221,3.132.5s-1.4.5-3.132.5-3.132-.221-3.132-.5S511.307,222.292,513.037,222.292Z" transform="translate(-434.307 -199.319)" fill="#754f3e"/>
    </g>
    <g id="Group_29133" data-name="Group 29133" transform="translate(16.099 60.697)">
      <g id="Group_29132" data-name="Group 29132">
        <g id="Group_29121" data-name="Group 29121" transform="translate(0 0.475)">
          <path id="Path_22358" data-name="Path 22358" d="M461.348,318.26h1.268c.134.023.2.092.2.212a8.223,8.223,0,0,1-.623,1.79l-.212-.106h-.743q-2.664,0-3.99,3.99a5.549,5.549,0,0,0-.106.95v.941a5.225,5.225,0,0,0,2.731,5.047l.637.106h.318c.36,0,.849-.314,1.472-.941a5.209,5.209,0,0,1,1.472,1.153,3.882,3.882,0,0,1-2.731,1.684h-.424q-2.761,0-4.516-3.469a13.792,13.792,0,0,1-.743-4.2,6.39,6.39,0,0,1,5.988-7.159Z" transform="translate(-455.36 -318.26)" fill="#5ec6c9"/>
        </g>
        <g id="Group_29122" data-name="Group 29122" transform="translate(9.032)">
          <path id="Path_22359" data-name="Path 22359" d="M475.171,317.23h1.711l.231.115a33.376,33.376,0,0,0-.231,4.009v.687l-.115.8a11.493,11.493,0,0,1,1.375-.231q2.339,0,2.749,4.124.464,4.338.466,5.4a6.351,6.351,0,0,1-1.841.221q-.574-7.563-1.375-7.565a3.983,3.983,0,0,0-1.024.351.2.2,0,0,0-.231-.231v.231q0,2.4.231,7.33l-.231.115H475.4c-.148,0-.221-.115-.221-.351q0-4.7.115-9.743-.118-3.377-.351-5.153Z" transform="translate(-474.94 -317.23)" fill="#5ec6c9"/>
        </g>
        <g id="Group_29123" data-name="Group 29123" transform="translate(15.347 4.345)">
          <path id="Path_22360" data-name="Path 22360" d="M495.24,337.6h-1.628c-.143-.023-.212-.092-.212-.212v-.549l.106-.54a7.085,7.085,0,0,1-2.38.655q-2.062,0-2.062-6.191a35.87,35.87,0,0,0-.434-3.575,3.769,3.769,0,0,1,1.734-.434,65.986,65.986,0,0,1,.761,7.478c.143,0,.212.217.212.655h.106a4.024,4.024,0,0,0,1.628-.761l.434.221v-.221a57.071,57.071,0,0,0-.54-7.15,5.744,5.744,0,0,1,1.734-.328q.415,0,.646,10.518c.078,0,.115.111.115.327Z" transform="translate(-488.63 -326.65)" fill="#5ec6c9"/>
        </g>
        <g id="Group_29124" data-name="Group 29124" transform="translate(22.913 4.793)">
          <path id="Path_22361" data-name="Path 22361" d="M505.339,327.62h1.767l.2.106-.106.517v.72a8.61,8.61,0,0,1,2.592-1.038,4.83,4.83,0,0,1,.411,1.767c-2.21.591-3.312,1.49-3.312,2.685v1.555a34.155,34.155,0,0,0,.4,3.584,5.168,5.168,0,0,1-1.767.411,25.429,25.429,0,0,1-.5-3.69q.3-4.844.309-6v-.618Z" transform="translate(-505.03 -327.62)" fill="#5ec6c9"/>
        </g>
        <g id="Group_29125" data-name="Group 29125" transform="translate(28.49 4.793)">
          <path id="Path_22362" data-name="Path 22362" d="M517.429,327.62H519.2l.2.106-.106.517v.72a8.609,8.609,0,0,1,2.592-1.038,4.831,4.831,0,0,1,.411,1.767c-2.21.591-3.312,1.49-3.312,2.685v1.555a34.1,34.1,0,0,0,.4,3.584,5.17,5.17,0,0,1-1.767.411,25.432,25.432,0,0,1-.5-3.69q.3-4.844.309-6Z" transform="translate(-517.12 -327.62)" fill="#5ec6c9"/>
        </g>
        <g id="Group_29126" data-name="Group 29126" transform="translate(33.296 5.111)">
          <path id="Path_22363" data-name="Path 22363" d="M530.289,328.31q0,.235,2.283,1.153a5.2,5.2,0,0,1,2.4,4.571,4.39,4.39,0,0,1-2.634,4.345,5.467,5.467,0,0,1-.909.115q-3.9-.754-3.893-4.581v-.572a6.2,6.2,0,0,1,1.947-4.8C529.487,328.416,529.754,328.338,530.289,328.31Zm-.115,2.413a7.912,7.912,0,0,0-.8,2.4q.263,3.314,1.947,3.312h.337q1.377-.36,1.375-2.4a3.347,3.347,0,0,0-2.634-3.312Z" transform="translate(-527.54 -328.31)" fill="#5ec6c9"/>
        </g>
        <g id="Group_29127" data-name="Group 29127" transform="translate(46.323 0.212)">
          <path id="Path_22364" data-name="Path 22364" d="M558.2,317.69A3.832,3.832,0,0,1,562.109,320a2.489,2.489,0,0,1,.2,1.112v.2q0,2.138-2.611,3.713v.2a5.192,5.192,0,0,1,2.814,4.622v.2q0,3.183-5.831,5.12a6.121,6.121,0,0,1-.5-1.61q4.622-1.578,4.622-3.51a3.5,3.5,0,0,0-2.717-3.524h-.3c.134,2.92.2,4.525.2,4.825l-.2.106h-1.407a.181.181,0,0,1-.2-.2q-.2-5.466-.2-8.737v-2.011a7.962,7.962,0,0,0-.2-1.914l.1-.2a.739.739,0,0,1-.1-.3C555.785,317.935,556.587,317.8,558.2,317.69Zm-.6,1.905v4.525h.1q2.92-1.156,2.92-2.814V321.2q0-1.7-2.611-1.7A.865.865,0,0,1,557.593,319.6Z" transform="translate(-555.78 -317.69)" fill="#5ec6c9"/>
        </g>
        <g id="Group_29128" data-name="Group 29128" transform="translate(53.722 4.793)">
          <path id="Path_22365" data-name="Path 22365" d="M572.129,327.62H573.9l.2.106-.106.517v.72a8.609,8.609,0,0,1,2.592-1.038,4.827,4.827,0,0,1,.411,1.767c-2.21.591-3.312,1.49-3.312,2.685v1.555a32.9,32.9,0,0,0,.4,3.584,5.17,5.17,0,0,1-1.767.411,25.436,25.436,0,0,1-.5-3.69q.3-4.844.309-6Z" transform="translate(-571.82 -327.62)" fill="#5ec6c9"/>
        </g>
        <g id="Group_29129" data-name="Group 29129" transform="translate(59.433 4.498)">
          <path id="Path_22366" data-name="Path 22366" d="M587.166,326.98h.328q2.242,0,2.74,2.962a2.422,2.422,0,0,1-2.74,2.74c-.909-.078-1.384-.115-1.43-.115a4.608,4.608,0,0,0,1.979,3.51v.106a8.389,8.389,0,0,1-1.1,1.43,6.636,6.636,0,0,1-2.74-5.7,6.723,6.723,0,0,1,1.758-4.5A1.963,1.963,0,0,1,587.166,326.98Zm0,1.965a2.383,2.383,0,0,0-.77,1.651l1.324.106c.291-.106.434-.217.434-.328v-.549C588.149,329.273,587.821,328.982,587.166,328.945Z" transform="translate(-584.2 -326.98)" fill="#5ec6c9"/>
        </g>
        <g id="Group_29130" data-name="Group 29130" transform="translate(65.472 3.893)">
          <path id="Path_22367" data-name="Path 22367" d="M600.98,325.67h.221q1.744,0,2.062,2.717a3.237,3.237,0,0,1,.106.761q-.222,7.383-.54,7.385h-1.089a.2.2,0,0,1-.222-.221q.222-2.318.222-4.23v-.221h-.222q-2.38.284-2.38,2.062,0,.976,1.628,1.416v1.513a.2.2,0,0,1-.221.221h-.222q-3.038-.782-3.035-3.035,0-2.837,3.478-4.018h.973V329.9a3.85,3.85,0,0,0-.655-2.38,2.691,2.691,0,0,0-1.734,1.3q-1.737-.823-1.734-.982Q599.513,325.67,600.98,325.67Z" transform="translate(-597.29 -325.67)" fill="#5ec6c9"/>
        </g>
        <g id="Group_29131" data-name="Group 29131" transform="translate(72.188 0.277)">
          <path id="Path_22368" data-name="Path 22368" d="M612.076,317.83h1.776l.244.115a11.463,11.463,0,0,0-.244,2.611v2.127a2.407,2.407,0,0,1,1.07-.351q3.439.415,3.437,2.961a5.1,5.1,0,0,1-1.545,2.962l-.115.231q0,.761,2.962,3.672v.245c-.664.853-1.056,1.287-1.186,1.3h-.115q-3.785-3.377-3.787-5.333a3.876,3.876,0,0,1,1.536-2.611l.116-.59a1.065,1.065,0,0,0-1.057-.71c-.876.268-1.31.623-1.31,1.07q0,1.2.591,6.993a5.891,5.891,0,0,1-1.891.231q-.443,0-.59-14.1c-.079,0-.115-.235-.115-.71Z" transform="translate(-611.85 -317.83)" fill="#5ec6c9"/>
        </g>
      </g>
    </g>
    <g id="Group_29135" data-name="Group 29135" transform="translate(53.23 29.431)">
      <g id="Group_29134" data-name="Group 29134">
        <path id="Path_22369" data-name="Path 22369" d="M554.691,270c-.189.078-.392.129-.586.189,1.518-.752,1.979-1.9.369-2.759a39.187,39.187,0,0,1-4.308-2.712c2.057-.254,4.258-.793,4.71-1.951.378-.978-1.8-1.8-4.415-2.422,3.478-1.37,7.92-3.787,2.98-2.389a23.183,23.183,0,0,1-9.719.074h0c-1.444-.221-.913-.733-.134-.7h0c1.25.051,2.8.115,4.59.166,6.043.175,7.653-1.675,3.437-1.153-2.943.364-8.1-.715-10.942-1.4-1.043-.244-.909-1.126.267-.872h0a56.541,56.541,0,0,0,8.986.853,55.886,55.886,0,0,0,10.314-.53c.955-.148,4.078-.452,4.249-1.808-.115-1.333-2.961-1.781-3.9-2a51.543,51.543,0,0,0-10.167-1.1,55.882,55.882,0,0,0-10.315.531c-.757.12-2.865.337-3.8,1.093a.847.847,0,0,0-.42.6.838.838,0,0,0-.032.115.7.7,0,0,0,.023.258,39.119,39.119,0,0,0,2.712,13.783c2.722,6.255,11.634,8.326,17.617,5.937C557.74,271.181,555.876,269.525,554.691,270ZM541.6,250.7a43.442,43.442,0,0,1,7.93-.544,52.986,52.986,0,0,1,8.589.673,18.875,18.875,0,0,1,2.1.4c1.928.812,1.628,1.937-.7,2.182-.019,0-.032,0-.055,0-4.045.351-19.411.083-10.785-1.67,1.993-.406-6.8-.438-10.125.051C538.937,251.064,541.133,250.783,541.6,250.7Zm24.8,7.224a.34.34,0,0,0-.1-.1c-1.582-2.846-5.669-3.211-8.691-2.413h0c-.267.134-.867.249-.987.572-.078.212.014.434-.143.632-.1.129-.267.2-.374.328,0,0-.009,0-.019,0-.088.023-.1.092-.074.166a1,1,0,0,0,.268.858c.235.328-.221.692.138,1.043.185.18.512.143.531.355.023.254.318.461.517.563a.725.725,0,0,0,.853-.161c.009,0,.018,0,.028-.009.06.018.332.2.364.212a.767.767,0,0,0,.507.009,8.146,8.146,0,0,1,2.971.014c2.786.586,2.182,3.469,1.361,5.494-.189.374-.374.7-.53.946a2.73,2.73,0,0,1-1.665,1.209,2.645,2.645,0,0,1-1.905-.535.467.467,0,0,0-.318-.323,1.624,1.624,0,0,0-.683,0c-.088.028-.125.12-.161.194-.064.134-.323.125-.447.171-.2.078-.221.351-.2.53.028.272-.364.351-.212.655a.829.829,0,0,0,.166.212c.1.1-.051-.032-.032.161a.661.661,0,0,0,.36.567.654.654,0,0,0,.323.092.724.724,0,0,0,.378.314.247.247,0,0,0,.092.046,6.73,6.73,0,0,0,7.63-3.326A9.164,9.164,0,0,0,566.4,257.919Zm-9.816,0c-.106-.2-.208-.369-.092-.572,2.6-.664,6.933-1.181,8.622,1.375.77,1.167.563,2.777.263,4.059-.028.129-.065.258-.1.388a5.254,5.254,0,0,0-.613-4.212C562.915,256.651,559.059,257.2,556.586,257.915Zm.392,1.024a1.052,1.052,0,0,0-.2-.078c-.166-.037-.078-.291-.065-.5,2.145-.65,5.171-1.172,7.168.088a2.834,2.834,0,0,1,1.181,2.694,3.018,3.018,0,0,0-.406-1.278C563.132,257.384,559.28,258.15,556.979,258.939Zm1.144.387c-.226-.023-.388.268-.655.268-.037,0-.1-.138-.152-.268,1.9-.65,4.881-1.361,6.6-.055a2.052,2.052,0,0,1,.734,1.13C563.441,258.307,560.175,258.685,558.123,259.326Zm1.158,7.884a3.989,3.989,0,0,0,.567.387,3.308,3.308,0,0,1-.936-.434A1.884,1.884,0,0,1,559.28,267.21Zm-.84.281a.356.356,0,0,0,.272-.217,3.746,3.746,0,0,0,2.657.816,3.716,3.716,0,0,1-3.128-.535A1.007,1.007,0,0,1,558.441,267.491Zm-.286,1.407c-.065.009-.088-.014-.1-.055l.111.055S558.159,268.9,558.155,268.9Zm.291.152s-.009-.009-.009-.014c.1.046.212.078.313.115C558.648,269.119,558.547,269.083,558.446,269.05Zm-.475-.6a1.473,1.473,0,0,0-.148-.148c.051.046.106,0,.152-.069a4.729,4.729,0,0,0,1.545.775A5.857,5.857,0,0,1,557.97,268.455Zm.124-.586a.9.9,0,0,1,0-.115,4.061,4.061,0,0,0,3.889.618,2.036,2.036,0,0,0,.245-.129A3.7,3.7,0,0,1,558.095,267.869Zm4.774-.083c-.037.037-.078.06-.12.1.083-.074.166-.152.244-.235C562.952,267.689,562.915,267.745,562.869,267.786Zm.115-7.92a6.392,6.392,0,0,0-3.658-.378c1.961-.466,4.705-.627,5.245,1.508a4.192,4.192,0,0,1,.111,1.223c0,.018,0,.037-.009.055A2.885,2.885,0,0,0,562.985,259.866Zm.323,7.4a1.336,1.336,0,0,0,.115-.115c-.1.125-.212.24-.318.36A2.022,2.022,0,0,0,563.307,267.27Zm-.337,1.144c1.356-1.033,2.067-2.9,2.579-4.428a7.32,7.32,0,0,0,.3-4.567c-1.19-3.409-5.729-3.331-8.852-2.685,0-.014,0-.032,0-.051a.624.624,0,0,1,.009-.166c3.017-.83,7.874-1.052,8.944,2.652a9.944,9.944,0,0,1-.471,5.4A6.9,6.9,0,0,1,562.971,268.414Zm2.431-2.223a11.96,11.96,0,0,0,.5-1.324,10.428,10.428,0,0,0,.461-5.582c-.895-3.667-5.25-4.036-8.506-3.441l.078-.037h0a11.81,11.81,0,0,1,3.663-.337c2.809.161,4.714,1.753,4.973,4.627A11.286,11.286,0,0,1,565.4,266.19Z" transform="translate(-535.852 -249.45)" fill="#5ec6c9"/>
      </g>
    </g>
    <path id="Path_22370" data-name="Path 22370" d="M646.4,258.02a2.993,2.993,0,0,0-1.352.406,3.106,3.106,0,0,0-1.01.835c-.189.258-.254.489-.175.632.069.125.258.194.521.194a2.993,2.993,0,0,0,1.352-.406,3.106,3.106,0,0,0,1.01-.835c.189-.258.254-.489.175-.632A.589.589,0,0,0,646.4,258.02Z" transform="translate(-540.79 -224.636)" fill="#754f3e"/>
    <path id="Path_22371" data-name="Path 22371" d="M431.213,266.409c.129.009.258.014.378.023a51.124,51.124,0,0,1-.784-48.367,3.84,3.84,0,0,1-.521.323,51.445,51.445,0,0,0,.927,48.021Zm62.81-76.229A54.3,54.3,0,0,0,428.4,216.04c.111.023.221.042.327.065a53.832,53.832,0,0,1,63.908-26.012C493.091,190.125,493.552,190.152,494.023,190.18Zm-64.346,76.155.369.014a52.448,52.448,0,0,1-1.167-47.357c-.078.028-.152.055-.235.088-.065.023-.125.042-.185.065a52.751,52.751,0,0,0,1.218,47.19Zm67.478-75.957a55.223,55.223,0,0,0-69.706,25.5l.332.055a54.761,54.761,0,0,1,68.212-25.63C496.38,190.327,496.767,190.351,497.155,190.378Zm-68.931,77.557h-.369a55.362,55.362,0,0,0,40.054,28.148c.12-.088.245-.175.374-.268A55.028,55.028,0,0,1,428.224,267.936ZM526.281,217.9a.059.059,0,0,0,0,.028c-.009,0-.018-.014-.028-.018a55.268,55.268,0,0,0-27.156-26.7c-.341-.023-.7-.042-1.052-.065a55.091,55.091,0,0,1,27.83,26.718.92.92,0,0,0-.111.018.79.79,0,0,0-.438.226A54.4,54.4,0,0,0,505.8,195.918a53.733,53.733,0,0,0-9.512-4.89c-.406-.028-.812-.06-1.227-.092a54.217,54.217,0,0,1,29.961,27.295.774.774,0,0,0-.457.1.981.981,0,0,0-.318.263.873.873,0,0,0-.263.074,52.834,52.834,0,0,0-33.85-28.157c-.835-.083-1.675-.171-2.509-.268a52.824,52.824,0,0,1,36.087,28.6.491.491,0,0,0-.175.281c-.124-.078-.369.018-.563.235-.028.032-.046.065-.069.1a51.531,51.531,0,0,0-91.871-2.5.677.677,0,0,1,.212.277,51.213,51.213,0,0,1,91.475,2.574c-.009,0-.018-.014-.028-.014-.106-.028-.235.1-.341.3a50.755,50.755,0,1,0-90.206,46.379l.383.028a50.438,50.438,0,1,1,89.685-45.963c-.051.3-.009.544.106.6a.856.856,0,0,0,.106.374,1.275,1.275,0,0,0,1.2.549,4.8,4.8,0,0,0,2.173-.641,5,5,0,0,0,1.605-1.333,1.376,1.376,0,0,0,.291-1.458.915.915,0,0,0-.351-.351c.028-.143-.138-.323-.4-.429a55.975,55.975,0,0,0-26.188-26.538c-.277-.014-.554-.032-.844-.046a55.686,55.686,0,0,1,26.64,26.511C526.415,217.775,526.313,217.821,526.281,217.9Zm.3,1.324c.078.143.014.374-.175.632a3.108,3.108,0,0,1-1.01.835,2.992,2.992,0,0,1-1.352.406c-.263,0-.452-.069-.521-.194-.078-.143-.014-.374.175-.632a3.106,3.106,0,0,1,1.01-.835,2.993,2.993,0,0,1,1.352-.406C526.332,219.034,526.521,219.108,526.585,219.228Zm-57.2,75.814a54.08,54.08,0,0,1-40.123-27.133l-.36.014a54.419,54.419,0,0,0,40.091,27.392C469.122,295.226,469.256,295.134,469.385,295.041Zm6.942-106.052a51.964,51.964,0,0,1,8.829.761c.457,0,1.19.023,2.122.06a52.849,52.849,0,0,0-57.431,26.58c.106.032.212.069.309.1A52.567,52.567,0,0,1,476.327,188.99ZM471.184,293.8a52.619,52.619,0,0,1-40.322-25.989l-.355.028a52.946,52.946,0,0,0,40.266,26.243C470.912,293.985,471.05,293.888,471.184,293.8Zm-43.717-25.874c-.125,0-.249-.009-.369-.018a56,56,0,0,0,40.063,28.725c.115-.083.235-.175.364-.268A55.679,55.679,0,0,1,427.467,267.922ZM425.1,220.058l-.374.069a55.808,55.808,0,0,0,1.545,46.18c.115,0,.231-.009.351-.009a55.491,55.491,0,0,1-1.522-46.24ZM532.038,240.83c0-.549-.245-.637-.618-.77-.277-.374-.8-.268-1.121-.185a1.167,1.167,0,0,0-1.319.009.938.938,0,0,0-1.024.318c-.291-.1-.72.051-.992.609a.8.8,0,0,0-.272.909l.065-.1a50.488,50.488,0,0,1-50.429,50.327c-.5,0-.992-.009-1.485-.023q-.208.145-.443.3c.641.023,1.282.037,1.928.037a50.8,50.8,0,0,0,50.747-50.507h0a1.167,1.167,0,0,1,.466-.886v.646a51.277,51.277,0,0,1-51.217,51.218c-.863,0-1.716-.028-2.565-.069l-.438.3c1,.055,2,.092,3,.092a51.6,51.6,0,0,0,51.54-51.54v-.867a3.257,3.257,0,0,1,.992-.351c0,.24,0,.687,0,1.218h0a52.594,52.594,0,0,1-52.532,52.532c-1.462,0-2.906-.069-4.341-.185-.143.092-.281.189-.424.286,1.573.143,3.16.221,4.765.221a52.911,52.911,0,0,0,52.85-52.786h0c0-.6,0-1.1,0-1.338.069-.009.138-.018.208-.023a5.027,5.027,0,0,1,.913,0v1.292a53.924,53.924,0,0,1-60.222,53.607c-.138.092-.281.185-.415.272a54.261,54.261,0,0,0,60.96-53.879v-1.25a2.289,2.289,0,0,1,.6.194v1.052A54.9,54.9,0,0,1,468.873,295.9q-.215.138-.415.263a55.219,55.219,0,0,0,63.082-54.65v-.835a1.1,1.1,0,0,1,.337.835,55.529,55.529,0,0,1-63.852,54.922c-.148.092-.286.175-.42.258a55.855,55.855,0,0,0,64.59-55.18A1.46,1.46,0,0,0,532.038,240.83Zm-110.6.692a54.564,54.564,0,0,1,4.447-21.63c-.129.032-.258.055-.388.083a55.168,55.168,0,0,0,1.5,46.314c.115,0,.235,0,.355,0A54.513,54.513,0,0,1,421.438,241.522Zm52.546,50.369a50.467,50.467,0,0,1-40.829-24.338q-.159.021-.346.042a50.792,50.792,0,0,0,40.732,24.592C473.7,292.075,473.85,291.978,473.984,291.891Zm-1.084.733a51.278,51.278,0,0,1-40.6-24.965l-.351.042a51.6,51.6,0,0,0,40.525,25.214C472.623,292.813,472.762,292.716,472.9,292.624Zm3.427-106.651a55.381,55.381,0,0,1,21.75,4.465c.318.018.632.042.946.06a55.765,55.765,0,0,0-72.262,25.274c.115.014.226.032.337.046A55.591,55.591,0,0,1,476.327,185.973Zm-48.307,80.316c.12,0,.245,0,.364,0a53.891,53.891,0,0,1-1.375-46.7c-.134.037-.263.074-.4.106a54.235,54.235,0,0,0,1.407,46.586Z" transform="translate(-420.46 -185.65)" fill="#5ec6c9"/>
    <path id="Path_22372" data-name="Path 22372" d="M592.7,379.47c-1.6,1.679-12.46,11.08-8.691,17.386,2.611,4.368-5.314,5.328-2.906,0,1.319-2.925-.72-7.86-3.8-6.707s-5-7.081-5-7.081l12.967-6.4,6.084-.48Z" transform="translate(-502.257 -288.295)" fill="#754f3e"/>
    <path id="Path_22373" data-name="Path 22373" d="M605.218,382.276c-2,2.081-6.68,6.477-4.839,10.716s-3.478,4.571-2.145.268c.65-2.094-.208-2.283-1.052-1.393s-1.642-5.429-1.642-5.429l2.639-2.8,4.4-2.237Z" transform="translate(-514.776 -291.102)" fill="#754f3e"/>
    <g id="Group_29149" data-name="Group 29149" transform="translate(12.307 37.978)">
      <g id="Group_29148" data-name="Group 29148">
        <g id="Group_29136" data-name="Group 29136" transform="translate(0 5.125)">
          <path id="Path_22374" data-name="Path 22374" d="M465.352,281.824c-3.492-.766-7.016-1.379-10.541-1.974-1.688-.286-4.433-1.259-6.1-.443a2.708,2.708,0,0,0-1.573,2.413c.014,1.329,1.961,1.818,2.957,2.09a73.3,73.3,0,0,0,10.744,1.674c5.96.715,11.855,1.813,17.746,2.943,2.865.549,5.729,1.107,8.566,1.79,1.942.466,3.7,1.407,5.7,1.684,1.107.152,2.8.4,3.654-.558.364-.411.267-1.333.309-1.868.051-.623-.48-.955-1-1.149a68.474,68.474,0,0,0-9.521-2.247c-6.979-1.476-13.977-2.837-20.943-4.355-.125-.028-.586.175-.429.208,9.378,2.044,18.83,3.746,28.171,5.932a7.213,7.213,0,0,1,2.975,1.075c.447.369.152,1.246.1,1.707-.189,1.578-2.2,1.162-3.331.969-1.984-.332-3.806-1.264-5.766-1.73-6.057-1.43-12.22-2.491-18.35-3.547-6.287-1.084-13.027-1.033-19.107-3.012a2.573,2.573,0,0,1-1.956-1.748c-.258-1.089,1.153-2.4,2.122-2.316,1.4.125,2.8.392,4.189.623,3.663.6,7.33,1.25,10.956,2.043C465.047,282.064,465.508,281.861,465.352,281.824Z" transform="translate(-447.139 -279.088)" fill="#5ec6c9"/>
        </g>
        <g id="Group_29137" data-name="Group 29137" transform="translate(1.07 5.659)">
          <path id="Path_22375" data-name="Path 22375" d="M449.483,280.437c7.588,1.338,15.121,2.86,22.659,4.424,5.277,1.1,10.559,2.177,15.836,3.275,3.114.646,6.67.95,9.567,2.329.134.065.531-.152.494-.171-2.726-1.3-6.025-1.6-8.954-2.2-5.291-1.1-10.582-2.187-15.873-3.285-7.754-1.605-15.5-3.178-23.3-4.558-.115-.023-.558.166-.429.189Z" transform="translate(-449.459 -280.246)" fill="#5ec6c9"/>
        </g>
        <g id="Group_29138" data-name="Group 29138" transform="translate(0.363 6.293)">
          <path id="Path_22376" data-name="Path 22376" d="M448.094,282.008c7.261,1.273,14.466,2.731,21.681,4.23,5.139,1.07,10.292,2.094,15.44,3.123,3.709.743,8.022,1.126,11.518,2.611.221.1.609-.226.3-.355-3.34-1.421-7.4-1.794-10.937-2.5-5.282-1.056-10.559-2.108-15.832-3.2-7.316-1.518-14.623-3-21.985-4.295-.268-.046-.535.323-.185.383Z" transform="translate(-447.927 -281.621)" fill="#5ec6c9"/>
        </g>
        <g id="Group_29139" data-name="Group 29139" transform="translate(0.028 7.246)">
          <path id="Path_22377" data-name="Path 22377" d="M447.228,283.891c8.658,2.131,17.635,2.648,26.248,4.922,3.76.992,7.63,1.564,11.454,2.265,3.354.614,6.68,1.388,10.015,2.094.12.023.572-.166.429-.2-3.335-.7-6.661-1.476-10.015-2.094-3.81-.7-7.722-1.213-11.454-2.265a102.917,102.917,0,0,0-13.705-2.523,121.982,121.982,0,0,1-12.543-2.4c-.12-.023-.572.171-.429.2Z" transform="translate(-447.2 -283.686)" fill="#5ec6c9"/>
        </g>
        <g id="Group_29140" data-name="Group 29140" transform="translate(3.675)">
          <path id="Path_22378" data-name="Path 22378" d="M477.666,277.468l-15.246-7.362c-1.734-.84-4.493-2.823-6.435-1.877a2.121,2.121,0,0,0-.655,2.694c.955,1.7,3.192,2.7,4.922,3.46.18.078.65-.171.411-.277a12.116,12.116,0,0,1-4.65-3.04c-1.564-1.993,1.135-2.948,2.782-2.228.221.1.438.212.655.318q3.1,1.5,6.2,2.994,5.8,2.8,11.6,5.6c.18.083.65-.166.411-.281Z" transform="translate(-455.107 -267.978)" fill="#5ec6c9"/>
        </g>
        <g id="Group_29141" data-name="Group 29141" transform="translate(5.274 0.047)">
          <path id="Path_22379" data-name="Path 22379" d="M473.646,275.65l-14.577-7.556c-.129-.069-.54.148-.494.171l14.577,7.556c.134.074.54-.143.494-.171Z" transform="translate(-458.572 -268.081)" fill="#5ec6c9"/>
        </g>
        <g id="Group_29142" data-name="Group 29142" transform="translate(4.022 0.679)">
          <path id="Path_22380" data-name="Path 22380" d="M470.372,276.268q-7.009-3.4-14.014-6.8c-.143-.069-.567.148-.489.184q7.009,3.4,14.014,6.8c.143.069.567-.143.489-.184Z" transform="translate(-455.859 -269.451)" fill="#5ec6c9"/>
        </g>
        <g id="Group_29143" data-name="Group 29143" transform="translate(3.731 1.401)">
          <path id="Path_22381" data-name="Path 22381" d="M466.074,276.729q-5.19-2.851-10.379-5.7c-.134-.074-.618.129-.42.235q5.19,2.851,10.379,5.7c.134.074.618-.129.42-.235Z" transform="translate(-455.228 -271.016)" fill="#5ec6c9"/>
        </g>
        <g id="Group_29144" data-name="Group 29144" transform="translate(24.398 13.06)">
          <path id="Path_22382" data-name="Path 22382" d="M500.035,296.479c6.264,3.427,12.478,6.947,18.692,10.462,1.125.637,3.091,1.937,4.479,1.315a1.718,1.718,0,0,0,.231-3.169c-3.769-2.533-8.133-4.106-11.864-6.68-.115-.078-.554.134-.494.171,3.188,2.2,6.887,3.741,10.236,5.683.678.392,1.356.8,2,1.25.95.669.793,2.846-.849,2.648-2.145-.254-4.258-2.011-6.075-3.072-5.217-3.045-10.564-5.886-15.864-8.783-.129-.069-.544.148-.494.175Z" transform="translate(-500.031 -296.291)" fill="#5ec6c9"/>
        </g>
        <g id="Group_29145" data-name="Group 29145" transform="translate(31.404 14.294)">
          <path id="Path_22383" data-name="Path 22383" d="M515.3,299.295q7.909,4.214,15.822,8.432c.208.111.66-.166.4-.3q-7.909-4.214-15.822-8.432c-.208-.111-.664.166-.4.3Z" transform="translate(-515.218 -298.965)" fill="#5ec6c9"/>
        </g>
        <g id="Group_29146" data-name="Group 29146" transform="translate(27.658 13.579)">
          <path id="Path_22384" data-name="Path 22384" d="M507.177,297.754l18.775,10.208c.212.115.664-.171.4-.314l-18.775-10.208c-.212-.111-.664.171-.4.314Z" transform="translate(-507.097 -297.415)" fill="#5ec6c9"/>
        </g>
        <g id="Group_29147" data-name="Group 29147" transform="translate(34.16 14.832)">
          <path id="Path_22385" data-name="Path 22385" d="M521.27,300.462q6.5,3.66,12.995,7.316c.2.115.659-.161.4-.3q-6.5-3.66-12.995-7.316c-.2-.115-.66.161-.4.3Z" transform="translate(-521.193 -300.131)" fill="#5ec6c9"/>
        </g>
      </g>
    </g>
    <path id="Path_22386" data-name="Path 22386" d="M489.458,283.92s-2.791.323-3.178,1.407c-1.2-.06-2.113,1.038-1.988,1.508s-1.467.863-.987,2.334,7.344,3.252,8.419,2.809.756-1.033,1.439-1.185,1.818-.5,1.684-.807.411-.512.59-.844-.65-.544-.185-1.425a1.911,1.911,0,0,0,.212-1.656C495.381,285.719,489.458,283.92,489.458,283.92Z" transform="translate(-454.266 -238.589)" fill="#754f3e"/>
    <path id="Path_22387" data-name="Path 22387" d="M511.633,290.94s.447,3.381.595,3.875-6.477.521-6.827.406,1.481,3.487,5.5,4.627a49.941,49.941,0,0,0,4.922,1.259l.664-2.385s1.721-1.19,1.605-1.748-.161-4.419-.161-4.825S511.633,290.94,511.633,290.94Z" transform="translate(-466.195 -242.37)" fill="#754f3e"/>
    <g id="Group_29152" data-name="Group 29152" transform="translate(29.434 40.495)">
      <g id="Group_29151" data-name="Group 29151">
        <g id="Group_29150" data-name="Group 29150">
          <path id="Path_22388" data-name="Path 22388" d="M505.1,276.351a2.046,2.046,0,0,1-.277-.157c-.083-.069-.129-.06-.2.009a4.868,4.868,0,0,0-.932,1.13c-.171.286-.314.586-.466.886-.055.111-.046.254-.143.351-.009.009.018.051.028.078a.139.139,0,0,1-.014.111c-.014-.023-.032-.042-.046-.065a.09.09,0,0,0-.032,0c.009.092.014.185.023.3-.018.014-.065.037-.111.065a.31.31,0,0,1-.051.351c-.014.018-.032.055-.023.065.134.134.028.249-.028.378.028.014.06.028.111.055-.065.051-.115.088-.2.148.083.023.143.037.2.055l0,0a3,3,0,0,0,.189-.281c.046-.088.171-.157.111-.286,0,0,.014-.014.023-.018a.808.808,0,0,1,.069.06l.037-.014c-.014-.12-.023-.235-.037-.355.037-.009.074-.014.069-.014a3.936,3.936,0,0,1,.327-.761c.111-.258.249-.507.388-.784.014,0,.065-.018.106-.028.009-.106.023-.2.032-.291h.028c.018-.078.018-.152.051-.185a.524.524,0,0,1,.194-.083c.1-.032.1-.092.06-.166a.91.91,0,0,0-.074-.111c.078-.042.148-.078.226-.125,0,.069.009.106.009.143.018,0,.032,0,.051.009.018-.065.032-.129.051-.189s.046-.18.083-.185c.078-.014.138-.032.166-.106Z" transform="translate(-494.219 -274.896)" fill="#5ec6c9"/>
          <path id="Path_22389" data-name="Path 22389" d="M499.377,301.54a.6.6,0,0,0,.2,0,.942.942,0,0,0,.2-.111.85.85,0,0,0-.6.078c.014-.028.042-.069.032-.078-.069-.078.028-.078.051-.111.069.083.129-.018.2-.014.152.018.309.028.494.046-.046.074-.083.125-.138.212.148-.018.277-.032.4-.051v-.042c-.037-.009-.074-.018-.115-.032,0-.014,0-.028.009-.037l.2.041a.768.768,0,0,1-.028.083c.065.009.12.014.171.023a1.565,1.565,0,0,0,.286.055.6.6,0,0,0,.549-.2c.078-.111.189-.041.281-.032.221.023.443-.106.664,0a.069.069,0,0,0,.06,0c.1-.074.2.009.3-.014-.069.06-.138.115-.208.175,0,0,0,.014,0,.018.1-.032.189-.069.286-.1,0,.009.009.023.014.032-.046.023-.092.051-.138.074.212-.018.461.023.466-.314.065.023.115.037.166.055a1.978,1.978,0,0,0-.171.194c-.014.018,0,.055-.009.083a.175.175,0,0,0,.069,0c.065-.014.125-.037.184-.055.078-.023.161-.041.258-.065-.129-.134-.226-.12-.328.046.06-.2.125-.231.258-.166a1.785,1.785,0,0,0,.314.152.714.714,0,0,0,.254-.042c0,.254.24.083.332.161-.088.041-.157.078-.231.106-.12.041-.24.083-.36.12-.258.074-.521.143-.784.217a.425.425,0,0,0,.018.06c.115-.037.231-.078.346-.111.042-.014.12-.018.12-.009.032.106.111.074.18.065.134-.023.268-.046.443-.074-.055.032-.074.042-.092.051,0,0,0,.009,0,.018l.166-.037c.046.041.083.074.148.129-.148.018-.277.028-.4.055-.055.014-.1.065-.161.083a.35.35,0,0,1-.138,0c-.042,0-.106-.046-.115-.037-.069.088-.152.055-.235.046-.042,0-.115,0-.129.018-.111.194-.291.083-.461.143.06-.065.092-.1.143-.152-.115,0-.194-.023-.272.074a.256.256,0,0,1-.3.106.931.931,0,0,0-.277,0c-.092,0-.185,0-.277,0,0,0-.009-.014-.014-.023.023-.014.046-.032.074-.046,0-.014,0-.028,0-.042a2.144,2.144,0,0,0-.286-.069,6.014,6.014,0,0,0-1.033.161c-.014,0-.028,0-.037,0,0-.046,0-.092-.009-.152a1.663,1.663,0,0,1-.664.18c-.014,0-.028.018-.042.018-.042,0-.106,0-.115-.028-.065-.143-.161-.069-.254-.046a.691.691,0,0,1-.254.037.217.217,0,0,0-.2.051.289.289,0,0,1-.18.037c-.069,0-.138-.028-.208-.028-.111,0-.221.023-.332.032a.232.232,0,0,1-.111-.028c-.115-.065-.226-.138-.341-.194-.037-.018-.092.018-.148.028.009.042.018.078.032.134-.12.028-.231.051-.346.074,0-.014,0-.028-.009-.042.055-.009.111-.018.161-.023-.055-.221-.231-.069-.341-.129.046-.032.083-.06.12-.088l-.014-.041-.48.125c0,.014,0,.028,0,.042l.3.042a.825.825,0,0,1-.424.069,1.246,1.246,0,0,0-.664.032.247.247,0,0,1-.115-.009,3.231,3.231,0,0,0-.42-.078,2.4,2.4,0,0,0-.309.051,1.157,1.157,0,0,1-.231-.028l.115-.051c-.152-.028-.277-.051-.415-.078-.037.06-.074.125-.115.2-.083-.023-.171-.046-.3-.078.115-.055.2-.1.286-.143-.009-.018-.014-.041-.023-.06-.231.1-.5.088-.706.272,0-.009-.014-.023-.018-.032.083-.106.161-.217.249-.332-.268-.028-.507-.051-.752-.078a.352.352,0,0,1,0-.069h.291a.83.83,0,0,0-.092.046h.434v-.041h-.346c-.106-.125-.221-.028-.332,0a1.261,1.261,0,0,1-.18.037c-.092,0-.189-.009-.286,0-.143.009-.291.065-.424-.042a.112.112,0,0,0-.1,0c-.212.078-.378-.055-.558-.1-.415-.042-.853.115-1.25-.185,0,.06,0,.083.009.12a.753.753,0,0,1-.48-.171.485.485,0,0,0-.208-.074c-.088-.023-.175-.032-.263-.055-.249-.069-.494-.148-.743-.208a2.051,2.051,0,0,0-.263-.028c-.009-.074-.014-.111-.019-.152-.143-.032-.291-.069-.438-.1a.733.733,0,0,1-.231-.037c-.185-.1-.346-.24-.54-.323a7.1,7.1,0,0,1-1.038-.687.3.3,0,0,1-.074-.078c-.194-.277-.378-.563-.581-.83a3.344,3.344,0,0,1-.443-1.061c-.009-.032.014-.078.032-.157.042.088.065.138.088.189.069.148.134.3.208.447s.092.328.263.443a1.677,1.677,0,0,1,.323.387.3.3,0,0,1,.046.06.873.873,0,0,0,.447.443c.115.06.226.129.337.194a.078.078,0,0,0-.009.023l-.24-.088c0,.009,0,.018-.009.028.152.083.3.166.457.245,0,0,0-.009.009-.018-.037-.032-.069-.069-.106-.1a4.655,4.655,0,0,1,.572.337,1.739,1.739,0,0,0,.793.3.686.686,0,0,1,.507.245c.019.028.1.051.12.032.111-.092.217-.023.318,0,.221.06.443.134.66.2.014,0,.018.018.051.046h-.2c.189.042.374.069.563.1a1.327,1.327,0,0,0,.268.037c.152,0,.3-.018.452-.032s.217.115.383.088a3.257,3.257,0,0,1,.724.055c.028,0,.065-.051.092-.078a.2.2,0,0,1-.028-.032l-.18-.014c.221-.042.434-.083.646-.115.032,0,.074.023.111.028.074.009.148.014.221.018s.129.009.189.009c0,.028,0,.083-.014.083a3.016,3.016,0,0,1-.411.041,3.408,3.408,0,0,1-.374-.037l-.014.083c.106.018.212.046.318.055s.2-.037.286,0a.481.481,0,0,0,.392-.023c.046-.023.083-.078.134-.088.152-.037.309-.065.461-.088.023,0,.051.041.078.069l-.332.157c0,.014.009.032.014.046a.705.705,0,0,0,.249-.046c.189-.125.4-.065.6-.078a.135.135,0,0,1,.111.078c.009.138.088.1.166.083a.582.582,0,0,1,.129-.018c.115,0,.231.009.346,0,.134,0,.189-.083.161-.221a1.994,1.994,0,0,1-.383.111,2.022,2.022,0,0,1-.415-.074.965.965,0,0,1,.217-.078,2.422,2.422,0,0,0,.683-.028s.014.028.028.032a.582.582,0,0,0,.12.032c.028,0,.078-.023.078-.018.078.161.208.032.309.06.115,0,.231.014.355.018-.065.065-.125.129-.189.189.208.148.4-.189.54-.014.221.009.406.018.59.028a.191.191,0,0,1,0-.051c-.092-.009-.189-.014-.281-.023,0-.009,0-.023-.009-.032.106-.028.212-.06.364-.1a2.9,2.9,0,0,0-.3-.028,2.583,2.583,0,0,0-.327.018,2.859,2.859,0,0,0-.3.055c.032-.037.06-.069.125-.138l-.563.074a1.482,1.482,0,0,1,.351-.134,3.533,3.533,0,0,1,.494,0,.807.807,0,0,1,.424.074.534.534,0,0,0,.309.023c.166-.023.328-.069.494-.106,0,.009,0,.014,0,.023-.088.023-.171.051-.258.074,0,.009,0,.018.009.028.115-.014.226-.023.341-.037a.451.451,0,0,1,.009.078c-.175.028-.351.051-.526.078a1.183,1.183,0,0,0,.332.037.242.242,0,0,0,.254-.143.36.36,0,0,1,.457-.161c.088.028.18.042.272.065a1.369,1.369,0,0,1-.235.032c-.083.014-.157.069-.24.078s-.157.028-.138.185a.837.837,0,0,1,.793-.194A1.5,1.5,0,0,1,499.377,301.54Zm-1.181.646.157.046v.023h-.337c.083.065.212.083.134.249.1-.032.18-.06.254-.083,0-.018-.009-.032-.014-.051-.041,0-.088,0-.129-.009,0-.009,0-.023-.009-.032a.923.923,0,0,0,.314-.092c.166-.138.332.014.489-.028.046-.014.138.037.129-.074.042,0,.1-.014.12.009.111.115.189.074.263-.046-.032-.023-.069-.046-.106-.069.009-.014.014-.028.023-.028.115,0,.24-.092.337.042,0,.009.051-.014.078-.018.092-.018.171-.1.277,0,.028.023.129-.032.2-.051a.517.517,0,0,1-.009-.078c-.161,0-.323-.009-.484,0a.535.535,0,0,1-.268-.023.486.486,0,0,0-.461.115.63.63,0,0,1-.171.069.188.188,0,0,0-.018-.046c.032-.014.065-.032.1-.046,0-.014,0-.032,0-.046-.051,0-.1-.014-.148-.018-.106,0-.208-.014-.314-.014a2.568,2.568,0,0,0-.918.051,1.071,1.071,0,0,1-.323,0c.111.2.291.152.447.161a4.7,4.7,0,0,0,.521-.042A1.048,1.048,0,0,1,498.2,302.185Zm3.34-.051c.111.078.318-.032.378-.208a2.285,2.285,0,0,0-1.31.134c.055.028.106.051.189.092-.074.014-.115.023-.152.032,0,.014,0,.032.009.046a1.318,1.318,0,0,0,.226-.046,1.72,1.72,0,0,0,.2-.125s-.009-.037-.032-.111l.494.078A.787.787,0,0,0,501.536,302.135Zm-5.051-.088c.028.055.037.083.06.134-.161-.032-.3-.065-.443-.092-.009.023-.023.041-.032.065.051.042.1.115.148.12a3.65,3.65,0,0,0,.549-.037c.125-.014.092-.125.088-.24-.069.037-.138.069-.2.106l.014.042Zm-.932-.083h-.443C495.336,302.121,495.345,302.121,495.553,301.964Zm.438.281c-.009-.166-.018-.171-.231,0ZM502.68,302c-.314-.134-.314-.134-.475-.046C502.366,301.964,502.509,301.978,502.68,302Z" transform="translate(-484.633 -286.614)" fill="#5ec6c9"/>
          <path id="Path_22390" data-name="Path 22390" d="M506.582,293.825c.046-.018.092-.037.134-.055v-.046c-.1-.046-.194-.088-.291-.134-.069.138.046.166.106.221A.1.1,0,0,1,506.582,293.825Z" transform="translate(-496.192 -284.292)" fill="#5ec6c9"/>
          <path id="Path_22391" data-name="Path 22391" d="M506.6,294.073l-.051-.023c-.194,0-.064.138-.1.208.014.009.028.014.041.023Z" transform="translate(-496.213 -284.54)" fill="#5ec6c9"/>
          <path id="Path_22392" data-name="Path 22392" d="M526.29,289.576c.074.2.148.406.226.609l.069-.014c.023-.065.18-.115,0-.208a.121.121,0,0,1-.046-.106c.078-.175-.055-.24-.152-.328-.032.018-.065.032-.092.046Z" transform="translate(-506.905 -282.105)" fill="#5ec6c9"/>
          <path id="Path_22393" data-name="Path 22393" d="M492.3,285.693c.088-.069.175-.138.263-.2s.152-.092.226-.134c-.009-.019-.014-.032-.023-.051-.212.083-.429.157-.637.249a2.648,2.648,0,0,0-.475.263c-.148.106-.328.185-.374.4-.009.042-.078.074-.115.111a1.2,1.2,0,0,0-.267.78,2.782,2.782,0,0,0,.226,1.435,8.6,8.6,0,0,0,.692,1.324c.014.028.037.046.092.055a2.406,2.406,0,0,0-.129-.318,5.9,5.9,0,0,1-.6-1.587c-.046-.185-.06-.378-.088-.567a.157.157,0,0,1,0-.046.457.457,0,0,0,.042-.415c-.014-.028.014-.074.023-.129.028.023.046.042.1.083-.051-.341.171-.544.341-.752a1.6,1.6,0,0,1,.7-.5Z" transform="translate(-487.828 -279.832)" fill="#5ec6c9"/>
          <path id="Path_22394" data-name="Path 22394" d="M492.9,285.6a2.22,2.22,0,0,0-.858,1.333,3.367,3.367,0,0,0,.06,1.531,6.244,6.244,0,0,0,.78,1.864l.111.194c.023-.023.051-.041.074-.065-.023-.046-.051-.092-.074-.134a5.351,5.351,0,0,1-.793-2.666,2.334,2.334,0,0,1,1.808-2.4,1.591,1.591,0,0,0,.3-.1,2.883,2.883,0,0,0-1.407.452Z" transform="translate(-488.424 -279.746)" fill="#5ec6c9"/>
          <path id="Path_22395" data-name="Path 22395" d="M492.992,278.654Zm10.661,2.251Zm-8.5-6.015v-.009l0,0Zm-10.7,9.4a3.306,3.306,0,0,0,.263,2.4,1.577,1.577,0,0,1,.189.623,2.471,2.471,0,0,0,.766,1.513,6.439,6.439,0,0,0,2.353,1.462,14.678,14.678,0,0,0,3.008.8,28.444,28.444,0,0,0,3.912.337c1.024.028,2.053.106,3.077.134a26.188,26.188,0,0,0,3.294-.055,8.246,8.246,0,0,0,1.794-.355,2.056,2.056,0,0,0,1.582-2,.2.2,0,0,1,.138-.2,2.161,2.161,0,0,0,1.144-1.347,4.381,4.381,0,0,0,.125-.47,7.766,7.766,0,0,0-.083-1.144c-.018-.069-.037-.143-.055-.212a.279.279,0,0,1,.028-.249,5.9,5.9,0,0,1,.074-.614,16.7,16.7,0,0,0-.18-3.058c-.115-.507-.161-.775-.208-.983a14.3,14.3,0,0,0-2.357-4.737c-.115-.157-.4-.507-.4-.507-.194-.212-.369-.4-.526-.567,0,0-.328-.3-.378-.341l-.591-.438s-.244-.152-.3-.185c-.111-.06-.189-.1-.272-.143-.028-.014-.055-.028-.078-.042h0s-.009,0-.014-.009h0c-.1-.051-.438-.194-.494-.212-.009,0-.032-.009-.065-.018h0c-.023-.009-.051-.018-.078-.028l-.092-.028c-.019,0-.037-.014-.055-.018s-.041-.014-.06-.018l-.051-.014c-.009,0-.023,0-.032-.009a.046.046,0,0,1-.014,0h0l-.318-.065-.1-.014-.1-.014c-.037,0-.074-.009-.115-.018a7.077,7.077,0,0,0-.793.023c-.217.023-.429.055-.646.078a1.92,1.92,0,0,1-.281.018,4.226,4.226,0,0,0-2,.4.277.277,0,0,0-.06.042c.041.111.1.125.2.074a4.5,4.5,0,0,1,1.545-.4.133.133,0,0,1,.083.014c-.221.041-.443.074-.664.12a4.929,4.929,0,0,0-.581.161,2.6,2.6,0,0,0-.4.18c-.028.014-.037.083-.042.129-.018.143-.134.254-.258.2a.235.235,0,0,0-.327.115c.074.046.148.1.235.148,0,.037,0,.083-.009.129.161-.12.318-.249.484-.36s.337-.194.507-.286c.009.014.014.023.023.037-.032.023-.06.051-.092.074a5.316,5.316,0,0,0-1.07,1.112,8.055,8.055,0,0,0-1.167,2.532c-.078.277-.152.558-.226.844-.221-.037-.447-.014-.618-.175-.023.032-.051.083-.074.083-.111,0-.221-.018-.36-.032.1-.341.18-.678.286-1.006a7,7,0,0,1,1.269-2.463,6.126,6.126,0,0,1,.54-.554.243.243,0,0,0,.051-.3,7.054,7.054,0,0,0-.6.554,2.822,2.822,0,0,1-.913.71,3.29,3.29,0,0,0-1.435,1.615,5.221,5.221,0,0,0-.466,1.4.663.663,0,0,1-.023.074c-.235-.032-.47-.083-.706-.1a4.229,4.229,0,0,0-2.948.729,2.977,2.977,0,0,0-.438.461.177.177,0,0,1-.2.083,1.235,1.235,0,0,0-1.43.706,1.979,1.979,0,0,0-.106.969c.009.069.014.138.023.2a3.873,3.873,0,0,0-.53.042.959.959,0,0,0-.664.9,3.081,3.081,0,0,0,.171,1.31A.647.647,0,0,1,484.448,284.287Zm2.4-4.239c-.161.06-.212.328-.447.185v.2c-.079,0-.069.092-.111.106-.125.046-.065.1-.014.161-.042.046-.083.088-.12.129,0,.065.152.115.014.185.051.088-.083.129-.065.189a1.07,1.07,0,0,1,.051.438.958.958,0,0,0,.069.387c.055.152.055.36.309.387-.051.028-.083.042-.115.06.083.138.161.272.245.406a.146.146,0,0,0,.046.046c.032.023.069.042.1.065-.023.028-.046.051-.078.088a1.655,1.655,0,0,1,.148.1c.028.018.06.046.065.074a.344.344,0,0,0,.323.328c.009,0,.018.018.032.028-.028.014-.051.028-.1.055.083.032.143.06.2.078a.413.413,0,0,0,.042.134c.134.175.355.254.5.438.088.115.3.134.4.245s.323.046.4.217c0,.014.046.014.069.018l.263.028-.028.028c.028.046.046.111.083.129.212.1.438.175.641.286a3.074,3.074,0,0,0,1.066.415,3.863,3.863,0,0,1,.443.106c0,.014,0,.028-.009.042-.272-.055-.544-.1-.812-.166a8.278,8.278,0,0,1-2.8-1.121A4.342,4.342,0,0,1,485.74,282a2.278,2.278,0,0,1-.023-1.315A.975.975,0,0,1,486.852,280.047Zm5.065.6c0,.032.009.06.014.092-.092.023-.18.046-.268.065a.974.974,0,0,0-.466.185,1.192,1.192,0,0,1-.3.138,1.658,1.658,0,0,0-.443.221,3.807,3.807,0,0,0-.332.337.418.418,0,0,0-.074.111,4.1,4.1,0,0,0-.4.923c-.032.281-.1.558-.111.835a.625.625,0,0,1-.074.309c-.018,0-.037,0-.055-.009.051-.378.078-.761.166-1.13a2.626,2.626,0,0,1,2.1-2.14c.125-.028.254-.042.383-.06,0,.014,0,.032.009.046C492.014,280.6,491.963,280.624,491.917,280.647Zm-1.379,4.742a5.357,5.357,0,0,1-3.031-2.223A6.458,6.458,0,0,0,490.538,285.389Zm-3.164-2.408a3.468,3.468,0,0,1-.577-2.034,8.384,8.384,0,0,0,.184,1.033A8.9,8.9,0,0,0,487.373,282.981Zm3.423-4.193c-.009.018-.009.023-.014.028a.4.4,0,0,1-.069.023,2.891,2.891,0,0,0-1.236.613,2.7,2.7,0,0,0-.83,1.956,6.728,6.728,0,0,0,.281,2.246c.078.281.18.558.277.863a4.594,4.594,0,0,1-2.011-2.962,2.458,2.458,0,0,1,.055-1.213,1.971,1.971,0,0,1,1.125-1.162A4.636,4.636,0,0,1,490.8,278.788Zm2.062-2.694a4.424,4.424,0,0,0-.95,1.536c-.037.1-.051.212-.078.314-.042.152-.088.3-.125.447a.109.109,0,0,0,0,.069c.055.037.069.074.014.125-.009.009.018.055.037.1l-.184.014A4.359,4.359,0,0,1,492.858,276.094Zm-.563,2.463c-.028.1-.055.166-.18.134a.838.838,0,0,0-.189,0c0-.032,0-.046,0-.051.055-.138.221-.226.175-.411a.305.305,0,0,1,.037-.161c.051-.134.111-.263.161-.4.042-.12.042-.3.125-.355.143-.106.028-.208.065-.3.046-.028.1-.065.152-.1-.023-.065-.042-.125-.06-.18l.032-.018c.037.023.069.046.138.092a.821.821,0,0,1-.018-.157.154.154,0,0,1,.028-.1,2.367,2.367,0,0,1,.18-.189l.249-.249c-.148.378-.328.729-.461,1.1C492.553,277.649,492.429,278.105,492.3,278.557Zm12.33,9.35c-.055-.189-.106-.378-.18-.563a1.9,1.9,0,0,0-1.822-1.352c-.637-.009-1.273-.037-1.91-.055-.074,0-.148-.018-.221-.028h0a.52.52,0,0,1-.106.028h-.014l-.028,0-.018,0c-.106,0-.212.009-.318.009s-.2-.014-.286-.018c-.42-.009-2.343.051-3.141.138v0c-.065,0-.124,0-.189.009a36.514,36.514,0,0,1-3.76-.092c-.406-.037-.812-.1-1.222-.143,0-.014,0-.028,0-.042.143.018.286.042.434.055a.385.385,0,0,0,.125-.014.733.733,0,0,1,.161-.037c.332.046.664.106,1,.157-.572-.161-1.153-.281-1.725-.443a7.085,7.085,0,0,1-1.67-.706,2.661,2.661,0,0,1,2.5.258,6.838,6.838,0,0,0-.673-.171.777.777,0,0,0-.664.263,1.577,1.577,0,0,1,1.319.231c.125.065.254.129.383.185.157.065.24.032.3-.12.078-.189.148-.388.231-.577.055-.129.12-.249.18-.378a2.8,2.8,0,0,0,1.43.314c-.023-.175-.037-.318-.055-.461-.023-.189.014-.387-.12-.549-.023-.032-.009-.1-.014-.129.2-.092.378-.18.558-.263,0-.014,0-.028,0-.046-.143.028-.244-.157-.4-.055a2.52,2.52,0,0,0-.249.189c-.037.032-.06.106-.1.111-.115.018-.083.088-.074.157.032.244.06.494.092.757-.046-.046-.083-.078-.12-.115a4.17,4.17,0,0,0-1.163-.817,2.825,2.825,0,0,0-2.7.023,6.508,6.508,0,0,0-.54.378.6.6,0,0,1,.069-.152,4.383,4.383,0,0,1,.544-.618c.208-.166.387-.4.71-.392.148,0,.291-.106.443-.12a6.673,6.673,0,0,1,.909-.051,7.439,7.439,0,0,1,.775.106c.092.014.185.032.3.051-.055.046-.078.069-.106.088l.77.258c-.032-.092-.041-.129-.055-.171h.166a1.041,1.041,0,0,1-.078-.1c.023-.069.065-.125.055-.171a.234.234,0,0,0-.115-.115,2.574,2.574,0,0,0-.3-.111,5.784,5.784,0,0,0-1.449-.3,3.188,3.188,0,0,0-2.136.521,3.051,3.051,0,0,0-.77.84,3.017,3.017,0,0,1,.1-.577,2.176,2.176,0,0,1,.258-.641c.125-.175.161-.392.383-.53a5.361,5.361,0,0,1,.507-.378c.055-.028.129-.028.189-.051s.12-.06.2-.1.185-.074.281-.111a1.11,1.11,0,0,1,.221-.088,3.067,3.067,0,0,1,.406-.055c.125-.009.254,0,.388,0-.018.055-.028.092-.042.129.1.009.212.134.272-.009.12.023.244.088.323.055.1-.041.24.12.3-.1.046.055.078.1.115.143l.055-.046a1.348,1.348,0,0,0,.249.12c.166.042.337.069.5.106.023,0,.041.046.055.074s.028.078.051.088c.125.051.258.088.387.134.009-.014.023-.028.032-.042-.028-.065-.06-.129-.1-.208.235.028.268-.009.217-.212a.457.457,0,0,0-.447-.217c-.074.028-.12.041-.166-.055-.032-.069-.138-.175-.171-.161a.306.306,0,0,1-.281-.055c-.055-.032-.161,0-.189-.046-.152-.194-.392-.009-.554-.143,0,0-.032.028-.051.042s-.051.042-.069.042c-.161-.028-.323-.088-.47.06l-.028-.055c.051-.032.1-.069.152-.1a.438.438,0,0,0-.212.037c-.051.028-.088.083-.138.1a.6.6,0,0,1-.2.018c-.032,0-.06-.023-.12-.046.138-.074.337.037.355-.185a4.521,4.521,0,0,1,1.472.157c.48.129.95.291,1.421.434a.291.291,0,0,0-.129-.138c-.212-.1-.424-.194-.641-.272a5.443,5.443,0,0,0-2.878-.369,2.6,2.6,0,0,0-1.961,1.421,4.347,4.347,0,0,0-.434,1.753c-.009.148-.014.291-.023.438a3.391,3.391,0,0,1-.171-.613,6.343,6.343,0,0,1-.1-2.247,2.158,2.158,0,0,1,1-1.587,3.822,3.822,0,0,1,1.808-.494,9.12,9.12,0,0,1,2.32.185c.328.069.655.157.983.235-.124.286-.226.554-.351.816a.254.254,0,0,0,.074.341c.217.175.429.351.646.535a1.605,1.605,0,0,0-.526.683.521.521,0,0,0-.028.383c.106.286.2.572.3.858-.074.009-.171-.161-.277,0,.111.055.2.1.3.148-.023.023-.041.037-.055.051.171.226.369.1.554.078-.157-.323-.3-.637-.452-.941a.654.654,0,0,1,.152-.8,3.358,3.358,0,0,1,.374-.3c.032-.028.069-.046.115-.078l-.457-.337a1.521,1.521,0,0,1,.1-.166h-.009a2.351,2.351,0,0,1,.314-.941,2.32,2.32,0,0,1,1.656-1.2,2.543,2.543,0,0,1,1.467.5l.028.014a4.73,4.73,0,0,1,.83.872,0,0,0,0,0,0,0,8.02,8.02,0,0,1,1.1,2.583.462.462,0,0,1,.018.065c.032.152.1.623.148.936a.849.849,0,0,1,.023.161c0,.014,0,.028,0,.042s0,.051.009.074a.31.31,0,0,1,.009.065c.042.272.088.544.129.821.023.074.046.143.065.217.083.3.161.6.249.89.023.083.065.152.175.092-.018-.069-.042-.134-.055-.2-.161-.858-.332-1.716-.48-2.574a12.156,12.156,0,0,0-.641-2.519,4.6,4.6,0,0,0-1.785-2.223,1.711,1.711,0,0,0-2.14.065,4.505,4.505,0,0,0-1.213,1.7c-.074.161-.166.314-.254.484-.115-.143.032-.673.249-1-.028.134-.06.263-.088.392a.234.234,0,0,0,.074-.111,5.664,5.664,0,0,1,1.089-1.979,2.348,2.348,0,0,1,2.957-.558,4.543,4.543,0,0,1,1.559,1.37,9.275,9.275,0,0,1,1.412,2.865,14.515,14.515,0,0,1,.6,3.437c.018.291.028.581.042.876l.042,0a5.568,5.568,0,0,0,.074-.613,14.976,14.976,0,0,0-.245-2.606,11.572,11.572,0,0,0-1.084-3.326,6.286,6.286,0,0,0-1.744-2.187,2.846,2.846,0,0,0-1.615-.632,2.419,2.419,0,0,0-1.951.913,5.136,5.136,0,0,0-.95,1.661c-.037.1-.074.171-.194.083.014-.051.028-.1.042-.157.014.046.023.083.042.138.028-.023.042-.032.046-.046a.406.406,0,0,0,.023-.069,4.566,4.566,0,0,1,.489-1.181c.24-.328.484-.646.733-.964a.838.838,0,0,1,.434-.314,3.027,3.027,0,0,1,.8-.249.457.457,0,0,0,.134-.046,1.435,1.435,0,0,1-.148-.023,3,3,0,0,1,1.453.065c-.078.014-.12.023-.166.028a.059.059,0,0,1,0,.028l.272.1c0,.009,0,.018,0,.028l-.221-.042a1.171,1.171,0,0,0,.3.171l.793.374a.348.348,0,0,1,.074.069c-.1.083.018.088.046.111a5.294,5.294,0,0,1,.429.355c.189.194.351.415.544.6a1.177,1.177,0,0,1,.281.521,3.7,3.7,0,0,0,.281.554c.115-.2-.111-.2-.111-.36.106.166.332.221.24.457a.061.061,0,0,0,0,.042c.143.221.185.507.42.673a.326.326,0,0,1,.088.138c.046.088.088.18.129.272a.824.824,0,0,1,.028.194.407.407,0,0,0,.134.328c.018.014,0,.078.009.115s-.014.074,0,.083c.161.138.152.392.332.517,0,0,0,.018,0,.028-.032-.009-.065-.023-.115-.042.032.171.055.323.088.489l-.443-.092c.148.12.277.231.406.341-.014.014-.023.032-.037.046-.069-.037-.134-.078-.212-.12-.014.06-.023.106-.023.111.055.074.088.115.125.162.018-.023.042-.051.065-.083.014.069.023.157-.009.18-.1.06-.06.1-.009.161s.078.129.06.157c-.069.106-.014.185.023.272a.976.976,0,0,1,.028.166c.014.06.032.12.051.175l.032,0c.014-.037.023-.069.046-.134.06.074.106.129.134.166-.083.06-.148.106-.24.175l.231.055c-.088.069-.148.125-.217.18a.967.967,0,0,0,.166.475c-.037.023-.069.037-.1.055.046.083.083.157.129.24-.023.009-.055.018-.092.032a1.7,1.7,0,0,1,.1.263c.037.148-.074.138-.2.115.051.125.088.226.12.314-.014.023-.037.06-.055.1.134.065.078.212.138.314s.1.115.175.028c-.014-.046-.028-.092-.051-.175.069.019.134.019.157.051a2.768,2.768,0,0,1,.175.3c.1-.092.185-.161.254-.235a.239.239,0,0,0,.069-.129,1.062,1.062,0,0,0-.018-.3c-.023-.1.083-.226-.092-.3-.134-.06-.106-.189.041-.258-.014-.065-.028-.129-.041-.2.069.023.115.037.2.06,0-.106.009-.185.009-.263a.281.281,0,0,0-.065-.014v.166h-.115c.028-.129.055-.249.083-.378.018.042.042.083.06.129.088-.115.1-.184.028-.235a.389.389,0,0,1-.065-.424.5.5,0,0,0-.051-.567.131.131,0,0,1-.037-.115c.06-.106.138-.208.014-.323-.009,0,0-.032,0-.042.092-.148-.037-.194-.1-.263a.293.293,0,0,0,.106.406c-.2.041-.226.018-.258-.148a1.684,1.684,0,0,0-.078-.212c.046-.037.143-.083.143-.12-.009-.12,0-.258-.143-.332-.051-.023-.078-.1-.115-.152l.037-.028c.051.032.106.069.157.1a1.28,1.28,0,0,0,.148.055c-.111-.217-.208-.4-.3-.577l-.028.014c.032.074.06.148.092.217-.092-.074-.208-.175-.2-.258a.459.459,0,0,0-.078-.268.757.757,0,0,1-.065-.268c0-.074.055-.065.1-.018a.329.329,0,0,0-.092-.351c0,.051.014.1.018.152-.042.018-.074.032-.12.051-.1-.249-.189-.494-.286-.733a.559.559,0,0,0-.083-.129c-.028-.032-.092-.074-.083-.088.069-.166-.037-.277-.115-.4-.24-.337-.484-.673-.724-1.01-.092-.129-.221-.244-.208-.429-.263-.327-.512-.669-.8-.983a4.042,4.042,0,0,0-.554-.447.33.33,0,0,0-.12-.037.625.625,0,0,1-.161-.028c-.143-.051-.212-.208-.328-.272a10.769,10.769,0,0,0-1.02-.466.393.393,0,0,0-.208-.014,4.185,4.185,0,0,0-1.808.558,2.758,2.758,0,0,0-.747.733c-.1.138-.134.332-.226.48a3.16,3.16,0,0,0-.369.895.867.867,0,0,1-.032.1c-.014.032-.028.06-.042.092a5.423,5.423,0,0,1,.849-1.993,2.7,2.7,0,0,1,2.662-1.1,3.783,3.783,0,0,1,1.836.812,7.982,7.982,0,0,1,2.034,2.389,12.576,12.576,0,0,1,1.619,4.691,9.635,9.635,0,0,1,.06,2.39c-.023.2-.042.392-.069.632a1.207,1.207,0,0,0,.184-.7,10.876,10.876,0,0,0-.138-3.141,13.186,13.186,0,0,0-1.651-4.461,7.8,7.8,0,0,0-2.187-2.473,3.417,3.417,0,0,0-1.836-.683,2.922,2.922,0,0,0-2.592,1.3,6.735,6.735,0,0,0-.973,2.154c-.069.245-.129.494-.194.743l-1.236-.277a1.44,1.44,0,0,1,.023-.148c.106-.364.194-.733.323-1.089a6.41,6.41,0,0,1,1.882-2.888,3.89,3.89,0,0,1,3.986-.752,5.9,5.9,0,0,1,2.6,1.924,13.63,13.63,0,0,1,3.017,6.7,9.327,9.327,0,0,1-.014,2.975.936.936,0,0,1-.092.341.169.169,0,0,0,.032.245.341.341,0,0,0,.055.051,1.353,1.353,0,0,0-.032.863c-.055-.009-.092-.018-.115-.023-.009.092.009.231-.037.258-.115.069-.069.171-.074.249,0,.055.051.111.083.166-.009,0-.014.009-.023.014-.12-.129-.24-.254-.36-.383l-.032.014.1.3-.023.009c-.032-.042-.064-.078-.1-.12l-.037.032c.069.088.143.175.212.263-.009.009-.018.014-.028.023-.06-.046-.12-.092-.185-.138.018.1.037.194.06.318-.055-.111-.1-.189-.138-.272l-.037.014c0,.051.009.106.014.171-.046-.037-.088-.065-.148-.106v.194C504.718,288.069,504.658,288,504.625,287.908Zm-.863-3.469c.055.069.129.12.138.18a1.086,1.086,0,0,1-.046.286c-.018,0-.055,0-.055-.009,0-.092,0-.189,0-.281-.06,0-.111,0-.148,0-.009-.111-.014-.208-.023-.3a1.317,1.317,0,0,0-.028-.129c.041,0,.083-.014.129-.018-.069-.235-.06-.268.083-.318a1.772,1.772,0,0,1,.1.3,1.557,1.557,0,0,1-.032.323A.464.464,0,0,0,503.763,284.439Zm.065.918c-.023.037-.138.023-.254.041.1-.138.374-.226.037-.346.051-.032.083-.051.12-.074C503.777,285.108,503.915,285.214,503.827,285.357Zm-.286-1.808a2.63,2.63,0,0,1-.1-.424.524.524,0,0,1,.092.037c.018.009.042.023.115.069-.06.014-.092.018-.148.032.208.037.129.12.074.2.055.042.111.083.166.129l-.023.042C503.657,283.6,503.56,283.59,503.541,283.549Zm.411-.217c.184.014.355.263.3.374-.009.018-.051.046-.051.041-.074-.074-.111,0-.175.046A.4.4,0,0,0,503.952,283.332ZM493.582,281a.4.4,0,0,1,.383.124.164.164,0,0,1,.051-.028.141.141,0,0,1,.069.014c-.106.106-.106.115-.24.069a1.511,1.511,0,0,1-.268-.148A.258.258,0,0,0,493.582,281Zm-.189,1.568c-.475-.037-.955-.069-1.439-.106A3.53,3.53,0,0,1,493.393,282.566Zm-2.943,1.412a2.6,2.6,0,0,1,2.113-.3,3.391,3.391,0,0,1,1.661.927.663.663,0,0,1-.129-.032c-.24-.1-.475-.194-.71-.3a.27.27,0,0,0-.392.125c-.051.092-.088.194-.129.291-.083.2-.166.406-.258.627a2.307,2.307,0,0,0-1.218-.849,3,3,0,0,0-1.485-.032A3.925,3.925,0,0,1,490.45,283.978Zm-5.411,3.261c.226.208.443.434.683.623a6.2,6.2,0,0,0,.77.512,11.133,11.133,0,0,0,3.16,1.1,21.836,21.836,0,0,0,2.892.415c.581.046,1.158.106,1.739.125.983.028,1.96.051,2.943.037,1.153-.014,2.307-.069,3.455-.115.655-.028,1.31-.092,1.965-.125a2.842,2.842,0,0,0,1.495-.466c.157-.106.309-.221.48-.341a1.81,1.81,0,0,1-.623,1.246,3.248,3.248,0,0,1-1.37.65,9.781,9.781,0,0,1-2.588.268c-1.485-.028-2.971-.092-4.456-.134-1.1-.032-2.2-.014-3.3-.124a16.6,16.6,0,0,1-3.118-.586,8.288,8.288,0,0,1-2.952-1.467A3.536,3.536,0,0,1,485.039,287.239Zm-.507-2.952a.7.7,0,0,1,.046.074,5.435,5.435,0,0,0,1.984,2.1,9.607,9.607,0,0,0,3.321,1.218,16.025,16.025,0,0,0,2.528.3c.978.032,1.961.069,2.943.06,1.315-.018,2.629-.078,3.944-.125a.561.561,0,0,0,.507-.434c-.194.037-.415-.046-.554.152-.069-.037-.134-.1-.2-.106-.157-.009-.314.018-.47.023-1.052.046-2.1.106-3.155.134a28.1,28.1,0,0,1-4.225-.171,13.122,13.122,0,0,1-3.3-.793,6.685,6.685,0,0,1-2.749-1.937,3.037,3.037,0,0,1-.761-1.748c-.046-.641.217-1.209.978-1.135.092.009.138.032.161.138a4.838,4.838,0,0,0,1.213,2.256,6.24,6.24,0,0,0,2.569,1.55,13.954,13.954,0,0,0,4.078.692c1.061.032,2.122.023,3.188.014h0c.369,0,.738,0,1.107,0,.046,0,.092-.014.166-.023.632-.014,1.3-.028,1.448-.028a.918.918,0,0,0,.161-.014,22.612,22.612,0,0,1,3.354.046,1.715,1.715,0,0,1,.946.323,2.477,2.477,0,0,1,.863,1.651,1.438,1.438,0,0,0-.918-.807,4.582,4.582,0,0,0-1.079-.221c-.733-.037-1.467-.014-2.2-.014a.233.233,0,0,0-.055.014,1.414,1.414,0,0,1,.235.272.171.171,0,0,0,.189.12c.733.023,1.467.042,2.2.088a2.874,2.874,0,0,1,1.149.3.9.9,0,0,1,.517.59,2.852,2.852,0,0,1-1.084.4c-.84.1-1.675.208-2.514.268q-1.439.111-2.878.143a44.515,44.515,0,0,1-4.9-.1,26.468,26.468,0,0,1-3.358-.461,11.669,11.669,0,0,1-3.141-1.075,4.515,4.515,0,0,1-1.813-1.619A3.265,3.265,0,0,1,484.532,284.287Z" transform="translate(-484.267 -273.435)" fill="#5ec6c9"/>
        </g>
        <path id="Path_22396" data-name="Path 22396" d="M505.063,306.783c-.332.452-.992,1.79-5.434,1.615s-10.868-.041-13.271-3.021c-.84-1.748-.452-1.628-.452-1.628l1.019,1.532.844.572,1.684.78,1.831.54,2.011.36,3.635.212,1.8.06h1.924l1.485.028,1.273-.383.78-.272Z" transform="translate(-485.102 -289.764)" fill="#5ec6c9"/>
        <path id="Path_22397" data-name="Path 22397" d="M486.37,305.114a2.816,2.816,0,0,1-.83-2.182c.185-.143.125.231.125.231l.632,1.458.074.554" transform="translate(-484.953 -289.307)" fill="#5ec6c9"/>
        <path id="Path_22398" data-name="Path 22398" d="M485.461,299.545c-.332-.434-.881-2.362-.5-2.127s-.24-.618-.24-.618h-.157s-.18.913-.06,1.079.424,1.425.461,1.471.415.392.415.392v-.129" transform="translate(-484.371 -286.022)" fill="#5ec6c9"/>
        <path id="Path_22399" data-name="Path 22399" d="M485.113,294.522c-.263-.337-.623-1.85-.277-2.168a.8.8,0,0,1,.8-.134l.074-.226-.161-.374a1.985,1.985,0,0,1-.434.06c-.286.014-1.056.314-.733,1.744s.387,1.024.5,1.1A.225.225,0,0,0,485.113,294.522Z" transform="translate(-484.286 -283.231)" fill="#5ec6c9"/>
        <path id="Path_22400" data-name="Path 22400" d="M491.247,293.125c-.775-.314-3.141-1.679-3.617-2.883s-.235-2.219.351-2.242.494-.2.494-.2l-.125-.148a1.462,1.462,0,0,0-.609,0,1.228,1.228,0,0,0-.821,1.439,4.868,4.868,0,0,0,1.578,2.971c.632.406,2.556,1.338,2.556,1.338l.392.092Z" transform="translate(-485.692 -281.073)" fill="#5ec6c9"/>
        <path id="Path_22401" data-name="Path 22401" d="M491.065,285.972c-.148.226.263-.175.231-.083s.715-.378.715-.378h.36s1.882-.572,1.531-.314.7-.124.7-.124.055-.2-.7-.2-2.574.263-3.045,1.172C490.761,286.365,491.065,285.972,491.065,285.972Z" transform="translate(-487.807 -279.595)" fill="#5ec6c9"/>
        <path id="Path_22402" data-name="Path 22402" d="M500.426,280.508l-.189,1.079-.392.055s-.009-.337,0-.392.291-1,.291-1l.521-.923a6.492,6.492,0,0,1,.475-.475c.1-.069.392-.212.392-.212l-.069.272-.53.567-.291.72Z" transform="translate(-492.657 -276.239)" fill="#5ec6c9"/>
        <path id="Path_22403" data-name="Path 22403" d="M504.124,274.744a4.32,4.32,0,0,1,1.305-.743c.66-.069,1.9-.327,1.555-.134s-1.462.637-1.462.637l-.406.3a1.917,1.917,0,0,1-.434.369,3.638,3.638,0,0,1-.438.065l-.12.028-.646,1.13-.263.609-.3.72-.263.692s.009.452,0,.53-.466.046-.466.046l-.041-.323s.143-.6.189-.738.291-.789.314-.844.226-.484.249-.554a6.47,6.47,0,0,1,.226-.641c.032-.042.424-.443.484-.489s.4-.406.4-.406Z" transform="translate(-493.895 -273.63)" fill="#5ec6c9"/>
        <path id="Path_22404" data-name="Path 22404" d="M515.565,287.708c.092.249.743-.632.743-1.3s.2-2.735.2-2.735a8.883,8.883,0,0,0-.618-3.1c-.6-1.25-2.044-4.189-3.524-5.393s-4.562-2.6-7.2,3.916a1.01,1.01,0,0,1-.392-.06l.3-1.033.563-1.453,1.172-1.656.627-.664a3.492,3.492,0,0,1,2.426-.5,7.388,7.388,0,0,1,2.219.6s1.665,1.439,1.711,1.5a24.686,24.686,0,0,1,2.265,3.658,15.307,15.307,0,0,1,.9,3.7,16.813,16.813,0,0,1,0,2.551,8.458,8.458,0,0,0-.092.936v.618l-.272.72-.54.517h-.291l-.134-.291Z" transform="translate(-495.318 -273.576)" fill="#5ec6c9"/>
        <path id="Path_22405" data-name="Path 22405" d="M495.5,292.167c-.092.051-.194.074-.166-.272a11.377,11.377,0,0,1,.291-1.781,7.651,7.651,0,0,1,.826-.992,10.182,10.182,0,0,1,1.1-.512c.046,0,1.2-.06,1.2-.06l1.338.277a2.687,2.687,0,0,1,.72.157c.263.12.876.18.752.323s-.577.7-.577.7-1.015-.277-1.425-.369-1.961-.535-2.814.092a3.712,3.712,0,0,0-1.209,2.1A2.01,2.01,0,0,1,495.5,292.167Z" transform="translate(-490.227 -281.577)" fill="#5ec6c9"/>
        <path id="Path_22406" data-name="Path 22406" d="M496.152,294.473s.553-.876,1.158-1.024a5.371,5.371,0,0,1,2.648.143c.673.3.586.531.623.752s.286-.332.286-.337.249-.055.268-.1-.037.06.129,0,.66-.189.66-.189l-.351-.24a10.379,10.379,0,0,0-1.356-.549,12.1,12.1,0,0,0-2.173-.152l-1.139.406-.692.66-.272.6v.323Z" transform="translate(-490.555 -283.856)" fill="#5ec6c9"/>
        <path id="Path_22407" data-name="Path 22407" d="M508.751,283.576c-.161.171-.673.494-.5.152a.549.549,0,0,1,.074-.489c.115-.2-.231.226-.111-.032a1.355,1.355,0,0,0,.12-.517s-.143.037-.106-.111-.48,1.532-.48,1.532l-.226.577-.189.614.245.434.341-.715.646-1.112.332-.226Z" transform="translate(-496.691 -278.356)" fill="#5ec6c9"/>
        <path id="Path_22408" data-name="Path 22408" d="M513.861,304.344c.789-.023,3.423-.032,4.055-.046s.055-.235.055-.235.1-.235-.71-.235-1.4-.014-2.164.023-1.587.125-1.587.125Z" transform="translate(-500.021 -289.806)" fill="#5ec6c9"/>
        <path id="Path_22409" data-name="Path 22409" d="M498.988,293.885a22.928,22.928,0,0,1-5.485-.406,11.955,11.955,0,0,1-2.366-.936l-1.149-.9a5.37,5.37,0,0,1-1.024-1.656c-.212-.757-.374-1.3-.374-1.3l-.212-.646s-.775.046-.821.6a12.453,12.453,0,0,0,.507,2.408,1.9,1.9,0,0,0,.812,1.162,35.887,35.887,0,0,0,4.345,1.813l3.289.18h2.971Z" transform="translate(-486.038 -281.303)" fill="#5ec6c9"/>
        <path id="Path_22410" data-name="Path 22410" d="M518.4,300.761c-.429-.235-.775-.429-4.479-.281a10.778,10.778,0,0,1-2.094.281l.092.111s-.3.226.272.212,4.742-.111,5.19-.046a.8.8,0,0,0,.632-.1Z" transform="translate(-499.115 -287.976)" fill="#5ec6c9"/>
        <path id="Path_22411" data-name="Path 22411" d="M520.67,295.415a10.6,10.6,0,0,0,.392,2.3c.2.383.383.244.383.244s-.148-.392-.171-.517-.461-2.2-.461-2.2Z" transform="translate(-503.878 -285.181)" fill="#5ec6c9"/>
      </g>
    </g>
    <path id="Path_22412" data-name="Path 22412" d="M645.066,259.536c-.065-.484-2.034.973-1.2,1.365s.9,4.525.655,5.466,1.458,1.555,1.056-.438-.946-4.65.065-5.485-.83-.692-.83-.692S645.107,259.85,645.066,259.536Z" transform="translate(-540.698 -225.4)" fill="#754f3e"/>
    <path id="Path_22413" data-name="Path 22413" d="M648.253,259.65a5.291,5.291,0,0,0-.517,3.6c.411,1.476-.784,1.674-.821.623s.517-2.256-.069-2.851-.143-.807-.143-.807l.572-.351Z" transform="translate(-542.252 -225.514)" fill="#754f3e"/>
  </g>
</svg>
